<?xml version="1.0" standalone="no"?><!DOCTYPE svg PUBLIC "-//W3C//DTD SVG 1.1//EN" "http://www.w3.org/Graphics/SVG/1.1/DTD/svg11.dtd"><svg t="1735739477745" class="icon" viewBox="0 0 1024 1024" version="1.1" xmlns="http://www.w3.org/2000/svg" p-id="1737" id="mx_n_1735739477746" xmlns:xlink="http://www.w3.org/1999/xlink" width="200" height="200"><path d="M512 86.016q78.016 0 136.992 48.992t72.992 123.008L757.984 256q58.016 0 107.008 28.992t76.992 78.016 28 107.008-30.016 108-80 78.016q26.016 48 26.016 104t-28.992 104.992-78.016 76.992-107.008 28q-46.016 0-88-19.008t-72-52.992q-30.016 34.016-72 52.992t-88 19.008q-58.016 0-107.008-28t-78.016-76.992-28.992-107.008q0-54.016 26.016-102.016-50.016-28-80-78.016t-30.016-108 28-107.008 76.992-78.016 107.008-28.992l36 2.016q14.016-74.016 72.992-123.008t136.992-48.992zM288 864l294.016-138.016h144q16 0 28.992-12.992t12.992-31.008v-298.016q0-18.016-12.992-30.016t-28.992-12H298.016q-16 0-28.992 12t-12.992 30.016v298.016q0 18.016 12.992 31.008t28.992 12.992h34.016L288.032 864z" p-id="1738" fill="#10b981"></path></svg>